<svg id="Capa_1" enable-background="new 0 0 511.999 511.999" height="512" viewBox="0 0 511.999 511.999" width="512" xmlns="http://www.w3.org/2000/svg"><g><g><ellipse cx="399.072" cy="111.951" fill="#f9f6f9" rx="147.66" ry="62.88" transform="matrix(.707 -.707 .707 .707 37.724 314.976)"/><ellipse cx="368.408" cy="143.335" fill="#e2dfe2" rx="103.785" ry="31.182" transform="matrix(.707 -.707 .707 .707 6.551 302.486)"/><ellipse cx="112.928" cy="111.951" fill="#f9f6f9" rx="62.88" ry="147.66" transform="matrix(.707 -.707 .707 .707 -46.085 112.642)"/><ellipse cx="143.592" cy="143.335" fill="#e2dfe2" rx="31.182" ry="103.785" transform="matrix(.707 -.707 .707 .707 -59.296 143.517)"/><path d="m399.416 268.277v-16.34c0-61.337-49.724-111.061-111.061-111.061h-64.715c-61.338 0-111.061 49.724-111.061 111.061v16.34c-40.842 20.481-68.879 62.727-68.879 111.527 0 68.867 55.828 124.696 124.696 124.696h175.204c68.868 0 124.696-55.828 124.696-124.696-.001-48.8-28.038-91.046-68.88-111.527z" fill="#f9f6f9"/><path d="m181.643 251.939c0 9.534-3.124 18.764-8.707 26.493-16.344 22.626-26.99 59.597-26.99 101.367 0 68.874 28.938 124.7 64.635 124.7h-40.904c-68.813 0-125.61-55.203-125.98-124.015-.264-49.086 27.845-91.632 68.883-112.207v-16.339c0-61.335 49.716-111.061 111.061-111.061h15.579c-31.799.001-57.577 49.727-57.577 111.062z" fill="#e2dfe2"/><path d="m302.074 342.419c0-16.983-20.628-30.75-46.075-30.75s-46.075 13.767-46.075 30.75 20.628 44.237 46.075 44.237 46.075-27.254 46.075-44.237z" fill="#e4936b"/><path d="m256.002 386.656c-25.448 0-46.076-27.258-46.076-44.236 0-16.989 20.628-30.758 46.076-30.758-12.219 0-22.118 13.769-22.118 30.758-.001 16.978 9.899 44.236 22.118 44.236z" fill="#dd6938"/></g><g><ellipse cx="152.368" cy="270.87" rx="22.723" ry="33.959"/><ellipse cx="357.639" cy="270.87" rx="22.723" ry="33.959"/><path d="m309.574 342.419c0-21.448-23.533-38.249-53.575-38.249s-53.574 16.801-53.574 38.249c0 18.507 19.028 46.132 45.465 50.987-3.198 17.857-18.835 31.456-37.598 31.456-4.142 0-7.5 3.358-7.5 7.5s3.358 7.5 7.5 7.5c19.406 0 36.412-10.448 45.707-26.009 9.295 15.561 26.3 26.009 45.707 26.009 4.142 0 7.5-3.358 7.5-7.5s-3.358-7.5-7.5-7.5c-18.763 0-34.398-13.599-37.597-31.456 26.437-4.855 45.465-32.48 45.465-50.987zm-53.574 36.736c-21.898 0-38.575-24.484-38.575-36.736 0-12.602 17.665-23.249 38.575-23.249s38.575 10.647 38.575 23.249c-.001 12.252-16.677 36.736-38.575 36.736z"/><path d="m406.917 263.743v-11.803c0-18.333-4.184-35.707-11.646-51.22 19.723-10.059 37.719-23.146 53.569-38.997.824-.824 1.637-1.647 2.439-2.481 2.873-2.984 2.783-7.732-.201-10.604-2.984-2.873-7.732-2.783-10.604.201-.737.766-1.484 1.522-2.24 2.278-14.879 14.879-31.785 27.134-50.319 36.515-1.304-2.012-2.669-3.982-4.09-5.908 4.091-3.51 8.09-7.194 11.929-11.033 29.062-29.062 48.047-64.436 53.456-99.605.363-2.361-.42-4.754-2.11-6.443-1.689-1.689-4.084-2.475-6.443-2.109-35.17 5.409-70.544 24.393-99.605 53.455-6.971 6.97-13.441 14.419-19.3 22.188-1.551-.456-3.115-.882-4.691-1.275 9.882-23.984 24.259-45.526 42.849-64.116 36.57-36.561 84.65-56.909 136.084-57.757-.736 40.701-14.171 80.69-38.207 113.346-2.456 3.336-1.742 8.031 1.594 10.486 3.336 2.456 8.031 1.742 10.486-1.594 27.425-37.259 42.028-83.382 41.118-129.872-.079-4.027-3.325-7.273-7.352-7.352-28.274-.559-55.905 4.399-82.112 14.718-27.136 10.684-51.433 26.637-72.218 47.417-20.772 20.772-36.672 44.967-47.33 71.989-4.47-.513-9.012-.787-13.617-.787h-64.719c-4.603 0-9.142.273-13.609.786-10.667-27.026-26.57-51.219-47.335-71.984-20.788-20.784-45.085-36.739-72.216-47.423-26.203-10.318-53.835-15.27-82.11-14.717-4.027.079-7.273 3.325-7.352 7.352-.552 28.279 4.4 55.904 14.719 82.107 10.686 27.135 26.644 51.433 47.431 72.22 15.846 15.847 33.839 28.934 53.56 38.998-7.462 15.512-11.646 32.887-11.646 51.221v11.803c-19.792 10.815-36.53 26.529-48.599 45.678-13.268 21.048-20.28 45.385-20.28 70.379 0 35.764 14.058 69.269 39.584 94.34 2.954 2.903 7.704 2.86 10.606-.095 2.903-2.955 2.86-7.704-.095-10.606-22.631-22.229-35.095-51.932-35.095-83.639 0-44.627 24.808-84.79 64.741-104.815 2.537-1.272 4.138-3.867 4.138-6.704v-16.34c0-57.103 46.457-103.56 103.56-103.56h64.719c57.103 0 103.56 46.457 103.56 103.56v16.34c0 2.837 1.602 5.432 4.138 6.704 39.934 20.026 64.741 60.189 64.741 104.815 0 64.624-52.575 117.2-117.199 117.2h-175.2c-21.781 0-43.037-6.014-61.47-17.392-3.526-2.177-8.147-1.082-10.322 2.443s-1.082 8.146 2.443 10.322c20.803 12.84 44.784 19.627 69.349 19.627h175.199c72.895 0 132.199-59.304 132.199-132.2 0-24.994-7.013-49.331-20.28-70.379-12.069-19.149-28.807-34.863-48.599-45.678zm-333.146-112.628c-36.57-36.57-56.923-84.654-57.771-136.087 51.43.847 99.514 21.197 136.087 57.761 18.584 18.584 32.963 40.124 42.854 64.111-1.578.394-3.144.82-4.697 1.276-5.837-7.746-12.306-15.194-19.3-22.187-29.05-29.06-64.42-48.044-99.596-53.456-2.363-.364-4.753.419-6.443 2.108-1.689 1.688-2.473 4.081-2.111 6.442 5.397 35.165 24.378 70.54 53.446 99.608 3.84 3.84 7.839 7.524 11.93 11.033-1.42 1.926-2.785 3.895-4.09 5.907-18.53-9.385-35.433-21.641-50.309-36.516zm64.039 19.115c-3.756-3.228-7.431-6.615-10.963-10.146-23.857-23.857-40.324-52.135-47.136-80.632 28.507 6.821 56.782 23.29 80.626 47.143 5.411 5.411 10.477 11.112 15.15 17.015-14.26 6.362-27.045 15.456-37.677 26.62zm198.7-26.62c4.688-5.919 9.754-11.621 15.148-17.015 23.852-23.853 52.131-40.322 80.632-47.142-6.82 28.501-23.289 56.779-47.143 80.632-3.53 3.531-7.205 6.917-10.961 10.146-10.632-11.164-23.416-20.258-37.676-26.621z"/></g></g></svg>